HIERARCHY
ROOT Hips
{
  OFFSET 5.84602e-005 68.8428 3.50346
  CHANNELS 6 Xposition Yposition Zposition Zrotation Xrotation Yrotation
  JOINT Spine
  {
    OFFSET 0 8.597 -4.6522
    CHANNELS 3 Zrotation Xrotation Yrotation
    JOINT Spine1
    {
      OFFSET 0 7.8454 0.4098
      CHANNELS 3 Zrotation Xrotation Yrotation
      JOINT Spine2
      {
        OFFSET 0 9.7078 -2.1609
        CHANNELS 3 Zrotation Xrotation Yrotation
        JOINT Neck
        {
          OFFSET 0 21.8761 -0.4549
          CHANNELS 3 Zrotation Xrotation Yrotation
          JOINT Head
          {
            OFFSET 0 12.3537 3.3602
            CHANNELS 3 Zrotation Xrotation Yrotation
            End Site
            {
              OFFSET 0.0001 18.9506 0.5657
            }
          }
        }
        JOINT LeftShoulder
        {
          OFFSET 2.2086 21.1115 7.2329
          CHANNELS 3 Zrotation Xrotation Yrotation
          JOINT LeftArm
          {
            OFFSET 13.1193 3.0282 -4.8998
            CHANNELS 3 Zrotation Xrotation Yrotation
            JOINT LeftForeArm
            {
              OFFSET 27.4081 -0.0973053 -0.2375
              CHANNELS 3 Zrotation Xrotation Yrotation
              JOINT LeftHand
              {
                OFFSET 22.8641 0.0662994 -0.1369
                CHANNELS 3 Zrotation Xrotation Yrotation
                JOINT LeftHandIndex1
                {
                  OFFSET 8.8614 0.775009 2.4612
                  CHANNELS 3 Zrotation Xrotation Yrotation
                  JOINT LeftHandIndex2
                  {
                    OFFSET 3.3146 -0.808304 0.5841
                    CHANNELS 3 Zrotation Xrotation Yrotation
                    JOINT LeftHandIndex3
                    {
                      OFFSET 2.2628 -0.552002 0.3989
                      CHANNELS 3 Zrotation Xrotation Yrotation
                      End Site
                      {
                        OFFSET 1.6102 -0.4807 0.2612
                      }
                    }
                  }
                }
                JOINT LeftHandMiddle1
                {
                  OFFSET 8.9937 0.895004 0.2143
                  CHANNELS 3 Zrotation Xrotation Yrotation
                  JOINT LeftHandMiddle2
                  {
                    OFFSET 4.0984 0.0113983 -0.0242
                    CHANNELS 3 Zrotation Xrotation Yrotation
                    JOINT LeftHandMiddle3
                    {
                      OFFSET 2.2716 0.00689697 -0.0138001
                      CHANNELS 3 Zrotation Xrotation Yrotation
                      End Site
                      {
                        OFFSET 2.0404 -0.1441 0.0027
                      }
                    }
                  }
                }
                JOINT LeftHandRing1
                {
                  OFFSET 8.5234 0.597198 -2.0164
                  CHANNELS 3 Zrotation Xrotation Yrotation
                  JOINT LeftHandRing2
                  {
                    OFFSET 3.7188 -0.188293 -0.2328
                    CHANNELS 3 Zrotation Xrotation Yrotation
                    JOINT LeftHandRing3
                    {
                      OFFSET 2.1191 -0.106598 -0.1332
                      CHANNELS 3 Zrotation Xrotation Yrotation
                      End Site
                      {
                        OFFSET 1.8737 -0.2304 -0.0886
                      }
                    }
                  }
                }
                JOINT LeftHandPinky1
                {
                  OFFSET 7.9094 -0.601089 -3.4825
                  CHANNELS 3 Zrotation Xrotation Yrotation
                  JOINT LeftHandPinky2
                  {
                    OFFSET 2.2874 -0.477005 -0.6314
                    CHANNELS 3 Zrotation Xrotation Yrotation
                    JOINT LeftHandPinky3
                    {
                      OFFSET 1.6774 -0.349396 -0.4633
                      CHANNELS 3 Zrotation Xrotation Yrotation
                      End Site
                      {
                        OFFSET 1.4888 -0.4091 -0.3416
                      }
                    }
                  }
                }
                JOINT LeftHandThumb1
                {
                  OFFSET 1.833 -1.3875 1.3896
                  CHANNELS 3 Zrotation Xrotation Yrotation
                  JOINT LeftHandThumb2
                  {
                    OFFSET 3.4129 -1.121 2.5732
                    CHANNELS 3 Zrotation Xrotation Yrotation
                    JOINT LeftHandThumb3
                    {
                      OFFSET 2.2474 -0.804199 1.6192
                      CHANNELS 3 Zrotation Xrotation Yrotation
                      End Site
                      {
                        OFFSET 1.6527 -0.5689 1.1317
                      }
                    }
                  }
                }
              }
            }
          }
        }
        JOINT RightShoulder
        {
          OFFSET -2.2086 21.1115 7.2329
          CHANNELS 3 Zrotation Xrotation Yrotation
          JOINT RightArm
          {
            OFFSET -13.1216 3.0287 -4.9007
            CHANNELS 3 Zrotation Xrotation Yrotation
            JOINT RightForeArm
            {
              OFFSET -27.4081 -0.0973053 -0.2375
              CHANNELS 3 Zrotation Xrotation Yrotation
              JOINT RightHand
              {
                OFFSET -22.8641 0.0664063 -0.1369
                CHANNELS 3 Zrotation Xrotation Yrotation
                JOINT RightHandIndex1
                {
                  OFFSET -8.8614 0.774994 2.4612
                  CHANNELS 3 Zrotation Xrotation Yrotation
                  JOINT RightHandIndex2
                  {
                    OFFSET -3.3146 -0.808304 0.5841
                    CHANNELS 3 Zrotation Xrotation Yrotation
                    JOINT RightHandIndex3
                    {
                      OFFSET -2.2628 -0.552002 0.3989
                      CHANNELS 3 Zrotation Xrotation Yrotation
                      End Site
                      {
                        OFFSET -1.6102 -0.4807 0.2612
                      }
                    }
                  }
                }
                JOINT RightHandMiddle1
                {
                  OFFSET -8.9937 0.894989 0.2143
                  CHANNELS 3 Zrotation Xrotation Yrotation
                  JOINT RightHandMiddle2
                  {
                    OFFSET -4.0984 0.0113983 -0.0242
                    CHANNELS 3 Zrotation Xrotation Yrotation
                    JOINT RightHandMiddle3
                    {
                      OFFSET -2.2716 0.00691223 -0.0138001
                      CHANNELS 3 Zrotation Xrotation Yrotation
                      End Site
                      {
                        OFFSET -2.0404 -0.1441 0.0027
                      }
                    }
                  }
                }
                JOINT RightHandRing1
                {
                  OFFSET -8.5234 0.597198 -2.0164
                  CHANNELS 3 Zrotation Xrotation Yrotation
                  JOINT RightHandRing2
                  {
                    OFFSET -3.7188 -0.188309 -0.2328
                    CHANNELS 3 Zrotation Xrotation Yrotation
                    JOINT RightHandRing3
                    {
                      OFFSET -2.1191 -0.106598 -0.1332
                      CHANNELS 3 Zrotation Xrotation Yrotation
                      End Site
                      {
                        OFFSET -1.8737 -0.2304 -0.0886
                      }
                    }
                  }
                }
                JOINT RightHandPinky1
                {
                  OFFSET -7.9094 -0.601105 -3.4825
                  CHANNELS 3 Zrotation Xrotation Yrotation
                  JOINT RightHandPinky2
                  {
                    OFFSET -2.2874 -0.477005 -0.6314
                    CHANNELS 3 Zrotation Xrotation Yrotation
                    JOINT RightHandPinky3
                    {
                      OFFSET -1.6774 -0.349396 -0.4633
                      CHANNELS 3 Zrotation Xrotation Yrotation
                      End Site
                      {
                        OFFSET -1.4888 -0.4091 -0.3416
                      }
                    }
                  }
                }
                JOINT RightHandThumb1
                {
                  OFFSET -1.833 -1.38751 1.3896
                  CHANNELS 3 Zrotation Xrotation Yrotation
                  JOINT RightHandThumb2
                  {
                    OFFSET -3.41299 -1.12099 2.5732
                    CHANNELS 3 Zrotation Xrotation Yrotation
                    JOINT RightHandThumb3
                    {
                      OFFSET -2.24741 -0.804108 1.6192
                      CHANNELS 3 Zrotation Xrotation Yrotation
                      End Site
                      {
                        OFFSET -1.6527 -0.5689 1.1317
                      }
                    }
                  }
                }
              }
            }
          }
        }
      }
    }
  }
  JOINT RightUpLeg
  {
    OFFSET -9.1966 3.8861 -0.7581
    CHANNELS 3 Zrotation Xrotation Yrotation
    JOINT RightLeg
    {
      OFFSET -0.7359 -41.0265 0
      CHANNELS 3 Zrotation Xrotation Yrotation
      JOINT RightFoot
      {
        OFFSET 0 -40.2855 0
        CHANNELS 3 Zrotation Xrotation Yrotation
        JOINT RightToeBase
        {
          OFFSET 0 -5.6122 11.7359
          CHANNELS 3 Zrotation Xrotation Yrotation
          End Site
          {
            OFFSET 0 0 7.8731
          }
        }
      }
    }
  }
  JOINT LeftUpLeg
  {
    OFFSET 9.1965 3.8864 -0.7581
    CHANNELS 3 Zrotation Xrotation Yrotation
    JOINT LeftLeg
    {
      OFFSET 0.7359 -41.0268 0
      CHANNELS 3 Zrotation Xrotation Yrotation
      JOINT LeftFoot
      {
        OFFSET 0 -40.2855 0
        CHANNELS 3 Zrotation Xrotation Yrotation
        JOINT LeftToeBase
        {
          OFFSET 0 -5.6122 11.7359
          CHANNELS 3 Zrotation Xrotation Yrotation
          End Site
          {
            OFFSET 0 0 7.8731
          }
        }
      }
    }
  }
}
MOTION
Frames:	5
Frame Time:	0.0333333
5.84602e-005 68.8428 3.50346 0 0 -0 0 0 -0 0 0 -0 0 0 -0 0 0 -0 0 0 -0 0 0 -0 0 0 -0 0 0 -0 0 0 -0 0 0 -0 0 0 -0 0 0 -0 0 0 -0 -0.0146107 -8.87603e-005 -2.63497e-007 2.99804e-018 -2.42657e-020 -1.42182e-022 0 0 -0 -0.0187562 -0.001176 5.858e-005 5.06224e-018 3.88251e-019 1.21329e-020 0 0 -0 -0.012269 -0.00324817 0.000675346 -1.74678e-018 3.88251e-019 -0 0 0 -0 0 0 -0 0 0 -0 0 0 -0 0 0 -0 0 0 -0 0 0 -0 0 0 -0 0 0 -0 0 0 -0 0 0 -0 0.0149955 -9.10982e-005 2.64101e-007 -9.69331e-018 1.21329e-020 -4.7394e-023 0 0 -0 0.0189956 -0.00119102 -5.96516e-005 -5.41541e-019 0 2.42657e-020 0 0 -0 0.0122698 -0.00324857 -0.000673756 -2.00796e-019 0 -1.94126e-019 0 0 -0 0 0 -0 0 0 -0 3.39842 1.33031 -0.0637918 -5.65207e-008 0.834868 -0.000436188 -3.39935 -2.16518 -0.0642563 -8.89002e-024 -1.18485e-023 -1.48106e-024 -3.39844 1.35642 0.0640283 -3.18788e-007 0.782166 -0.000588827 3.39931 -2.13858 0.0634662 1.1399e-023 0 -0 
-28.5138 23.3828 12.5386 64.8724 -11.4385 71.9871 -0.439428 7.46763 -0.0782563 -0.879857 14.9357 -0.0994621 -0.87985 14.9357 -0.099443 -3.52177e-005 11.899 2.21985e-005 -2.03321e-007 8.22117 -1.148e-005 5.87417 7.57806 -31.1455 -28.4435 -1.89835 31.7228 11.9302 -51.9264 -67.6939 0.190914 -2.77223 12.5224 -2.38542e-015 -3.18055e-015 6.36111e-015 0 0 -0 -5.56597e-015 -9.54166e-015 6.36111e-015 -2.38542e-015 -3.18055e-015 6.36111e-015 -0.0145934 -9.08826e-005 6.60532e-007 3.97569e-015 -3.18055e-015 3.18055e-015 -2.38542e-015 -3.18055e-015 6.36111e-015 -0.018743 -0.00117046 5.61039e-005 6.36111e-015 -6.36111e-015 3.18055e-015 -2.38542e-015 -3.18055e-015 6.36111e-015 -0.0123009 -0.00325089 0.000674286 -1.19271e-014 0 -0 -2.38542e-015 -3.18055e-015 6.36111e-015 0 0 -0 -5.56597e-015 -9.54166e-015 6.36111e-015 5.15815 14.9941 20.6207 34.583 -7.8247 -32.7562 -1.8895 -8.64331 59.522 7.47482 -3.7614 6.28667 -1.50839e-006 4.07568e-007 9.14378e-007 1.34051e-006 1.01154e-007 -8.04857e-007 -1.00512e-006 -5.2275e-007 5.96002e-007 -1.50839e-006 4.07568e-007 9.14378e-007 0.0149547 -9.15515e-005 -3.23349e-008 -1.00513e-006 -5.22673e-007 5.96071e-007 -1.50839e-006 4.07568e-007 9.14378e-007 0.0189501 -0.00119027 -6.69608e-005 -6.66614e-007 -1.54031e-006 3.77211e-007 -1.50839e-006 4.07568e-007 9.14378e-007 0.0123504 -0.00326836 -0.000684373 -6.67559e-007 -1.54063e-006 3.77045e-007 -1.50839e-006 4.07568e-007 9.14378e-007 1.34051e-006 1.01154e-007 -8.04857e-007 -1.00512e-006 -5.2275e-007 5.96002e-007 -20.4559 -29.377 -42.5224 -41.0612 56.9518 65.1795 11.4035 6.42216 -23.7729 6.91553e-007 5.09338e-007 -3.48539e-006 0.321684 0.680922 -0.906931 -1.07139 0.637395 0.952685 -10.7108 5.1701 22.6516 -2.75957e-006 -5.53804e-006 6.56712e-007 
-45.4705 3.50911 13.5726 96.2913 7.21454 96.5134 -0.608003 10.7659 -0.188493 -1.21225 21.5331 -0.265501 -1.21226 21.5332 -0.265461 -0.000147634 17.0097 0.000101955 2.85189e-006 11.5578 7.81725e-006 10.8384 9.17917 -45.4003 -40.5376 -2.18967 45.934 -3.0568 -37.3784 -102.653 0.524038 -3.77144 18.2378 3.18055e-015 0 -3.18055e-015 3.18055e-015 -3.18055e-015 3.18055e-015 3.53113e-031 -6.36111e-015 3.18055e-015 3.18055e-015 0 -3.18055e-015 -0.0146627 -8.6981e-005 1.99184e-008 6.36111e-015 -3.18055e-015 6.36111e-015 3.18055e-015 0 -3.18055e-015 -0.0188057 -0.00117837 5.73416e-005 -1.59028e-015 -3.18055e-015 6.36111e-015 3.18055e-015 0 -3.18055e-015 -0.0122647 -0.00324684 0.000680158 -4.77083e-015 -3.18055e-015 3.18055e-015 3.18055e-015 0 -3.18055e-015 3.18055e-015 -3.18055e-015 3.18055e-015 3.53113e-031 -6.36111e-015 3.18055e-015 3.93445 20.2079 30.7748 47.4777 -9.13199 -47.7944 0.589857 -2.15741 85.1896 11.2665 -5.29329 9.01523 -4.34289e-008 -9.34464e-009 -9.70332e-008 -1.08572e-007 -2.33618e-008 -2.42583e-007 -4.34289e-008 -9.34469e-009 -9.70333e-008 -4.34289e-008 -9.34464e-009 -9.70332e-008 0.0150331 -9.56668e-005 1.14968e-006 -4.34289e-008 -9.35742e-009 -9.7032e-008 -4.34289e-008 -9.34464e-009 -9.70332e-008 0.019023 -0.00119275 -6.062e-005 -4.34298e-008 -9.36083e-009 -9.70313e-008 -4.34289e-008 -9.34464e-009 -9.70332e-008 0.0122721 -0.00324873 -0.000676484 -4.34315e-008 -9.35536e-009 -9.70311e-008 -4.34289e-008 -9.34464e-009 -9.70332e-008 -1.08572e-007 -2.33618e-008 -2.42583e-007 -4.34289e-008 -9.34469e-009 -9.70333e-008 -43.4485 -31.6503 -66.1227 -87.0723 44.1433 109.593 20.869 8.29918 -36.1466 -2.66212e-006 7.533e-007 7.91743e-008 2.05521 -1.23159 -1.3207 -1.52671 4.54994 0.816798 -19.2622 4.99512 32.6003 2.64834e-031 -4.77083e-015 3.18055e-015 
-41.4126 8.10133 13.4095 89.9982 1.99555 92.0096 -0.575918 9.89485 -0.158461 -1.14984 19.791 -0.219063 -1.14986 19.791 -0.219089 -4.05155e-005 15.3323 1.77684e-005 -4.61699e-006 10.0093 5.61799e-006 9.25915 9.24231 -42.1213 -37.6868 -2.02237 42.5949 -1.74821 -41.398 -96.8107 0.117475 -3.24233 17.0966 -3.21813e-006 1.00314e-007 1.69735e-007 -3.44737e-006 -2.26256e-007 -5.77488e-007 -2.43388e-006 5.78624e-007 -5.70992e-007 -3.21813e-006 1.00314e-007 1.69735e-007 -0.0146294 -8.65238e-005 2.26878e-006 -3.21831e-006 1.00292e-007 1.6975e-007 -3.21813e-006 1.00314e-007 1.69735e-007 -0.0187703 -0.00117255 5.77265e-005 -2.43155e-006 5.78865e-007 -5.70879e-007 -3.21813e-006 1.00314e-007 1.69735e-007 -0.0123011 -0.00325443 0.000673827 -3.21827e-006 1.00275e-007 1.69845e-007 -3.21813e-006 1.00314e-007 1.69735e-007 -3.44737e-006 -2.26256e-007 -5.77488e-007 -2.43388e-006 5.78624e-007 -5.70992e-007 4.49593 19.3042 28.1332 44.7074 -9.01421 -44.4485 0.252272 -4.23454 79.7145 10.7693 -4.67804 8.13709 -3.18055e-015 -9.54166e-015 -0 -7.95139e-016 -9.54166e-015 -0 7.95139e-016 -6.36111e-015 -3.97569e-016 -3.18055e-015 -9.54166e-015 -0 0.0149939 -9.08513e-005 -5.05504e-007 7.95139e-016 6.36111e-015 3.97569e-016 -3.18055e-015 -9.54166e-015 -0 0.0189466 -0.00118519 -5.92687e-005 -3.18055e-015 -9.54166e-015 1.19271e-015 -3.18055e-015 -9.54166e-015 -0 0.0122052 -0.00323165 -0.000672546 -2.38542e-015 -3.18055e-015 2.38542e-015 -3.18055e-015 -9.54166e-015 -0 -7.95139e-016 -9.54166e-015 -0 7.95139e-016 -6.36111e-015 -3.97569e-016 -38.7321 -31.8978 -61.9167 -79.7787 48.8599 103.27 18.044 8.45152 -32.7353 -5.98527e-006 1.5032e-006 -2.45419e-006 1.64234 -0.532941 -1.22977 -1.42566 3.1642 0.92414 -17.2336 5.3682 30.4465 -4.77083e-015 1.59028e-015 6.36111e-015 
-41.4126 8.1014 13.4094 89.9982 1.99555 92.0096 -0.57814 9.78216 -0.157303 -1.15427 19.5651 -0.217564 -1.15428 19.5651 -0.217572 -7.62855e-005 14.8885 5.59975e-005 -3.51695e-006 9.34714 6.14059e-006 8.94974 9.45791 -42.0354 -37.5362 -1.90916 42.4466 -1.6297 -40.8096 -95.8363 -0.140392 -2.98488 17.2046 4.77083e-015 6.36111e-015 -0 -1.59028e-015 -6.36111e-015 3.18055e-015 4.77083e-015 -3.18055e-015 3.18055e-015 4.77083e-015 6.36111e-015 -0 -0.0146446 -8.70989e-005 -2.21958e-006 -1.11319e-014 0 6.36111e-015 4.77083e-015 6.36111e-015 -0 -0.0187743 -0.00117701 5.57054e-005 -8.51154e-007 -4.5852e-007 8.53006e-007 4.77083e-015 6.36111e-015 -0 -0.0123062 -0.00325766 0.000680202 -6.36111e-015 3.18055e-015 -6.36111e-015 4.77083e-015 6.36111e-015 -0 -1.59028e-015 -6.36111e-015 3.18055e-015 4.77083e-015 -3.18055e-015 3.18055e-015 4.58373 19.4044 27.8745 44.7074 -9.01422 -44.4485 0.252276 -4.23453 79.7145 11.0632 -4.45231 7.91456 -7.95139e-016 -3.18055e-015 -3.97569e-016 -7.95139e-016 -1.27222e-014 1.19271e-015 1.59028e-015 -9.54166e-015 -0 -7.95139e-016 -3.18055e-015 -3.97569e-016 0.0150098 -8.82693e-005 2.15448e-006 -1.59028e-015 3.18055e-015 -7.95139e-016 -7.95139e-016 -3.18055e-015 -3.97569e-016 0.0189951 -0.00118924 -6.00215e-005 7.95139e-016 -3.18055e-015 3.97569e-016 -7.95139e-016 -3.18055e-015 -3.97569e-016 0.0122847 -0.00325926 -0.00067576 -1.59028e-015 -9.54166e-015 -3.97569e-016 -7.95139e-016 -3.18055e-015 -3.97569e-016 -7.95139e-016 -1.27222e-014 1.19271e-015 1.59028e-015 -9.54166e-015 -0 -39.1812 -31.7478 -62.5859 -79.7774 48.8598 103.264 17.5997 8.74289 -32.3357 -3.77936e-006 -2.69643e-007 8.39885e-007 1.64213 -0.538571 -1.22975 -1.42567 3.17568 0.923372 -17.2335 5.36234 30.4456 -1.56266e-006 3.14029e-006 -1.01802e-006 
